<svg width="78" height="94" viewBox="0 0 78 94" fill="none" xmlns="http://www.w3.org/2000/svg">
<path d="M25.5 53.5C25.5 59.4685 20.2382 64.5 13.5 64.5C6.76179 64.5 1.5 59.4685 1.5 53.5C1.5 47.5315 6.76179 42.5 13.5 42.5C20.2382 42.5 25.5 47.5315 25.5 53.5Z" fill="white" stroke="#D31E34" stroke-width="3"/>
<path d="M76.5 53.5C76.5 59.4685 71.2382 64.5 64.5 64.5C57.7618 64.5 52.5 59.4685 52.5 53.5C52.5 47.5315 57.7618 42.5 64.5 42.5C71.2382 42.5 76.5 47.5315 76.5 53.5Z" fill="white" stroke="#D31E34" stroke-width="3"/>
<path d="M69 53.5C69 64.4435 66.1555 74.2351 60.9974 81.2492C55.8673 88.2252 48.4264 92.5 39 92.5C29.5689 92.5 21.9982 88.2204 16.7427 81.2359C11.4627 74.2188 8.5 64.43 8.5 53.5C8.5 42.57 11.4627 32.7812 16.7427 25.7641C21.9982 18.7796 29.5688 14.5 39 14.5C48.4264 14.5 55.8673 18.7748 60.9974 25.7508C66.1555 32.7649 69 42.5565 69 53.5Z" fill="white" stroke="#D31E34" stroke-width="3"/>
<path d="M28.5 71.5H49.5V72C49.5 77.799 44.799 82.5 39 82.5C33.201 82.5 28.5 77.799 28.5 72V71.5Z" fill="white" stroke="#D31E34" stroke-width="3"/>
<ellipse cx="39" cy="80" rx="7" ry="4" fill="#C1162B"/>
<ellipse cx="7" cy="54" rx="3" ry="4" fill="#C1162B"/>
<ellipse cx="71" cy="54" rx="3" ry="4" fill="#C1162B"/>
<path d="M29.5 46.5H48.5V50C48.5 53.0376 46.0376 55.5 43 55.5H35C31.9624 55.5 29.5 53.0376 29.5 50V46.5Z" fill="white" stroke="#D31E34" stroke-width="3"/>
<path fill-rule="evenodd" clip-rule="evenodd" d="M43 41.5999C52.129 39.7468 59 31.6758 59 22C59 10.9543 50.0457 2 39 2C27.9543 2 19 10.9543 19 22C19 31.6758 25.871 39.7468 35 41.5999V46H43V41.5999Z" fill="white"/>
<path d="M43 41.5999L42.7016 40.1299L41.5 40.3738V41.5999H43ZM35 41.5999H36.5V40.3738L35.2984 40.1299L35 41.5999ZM35 46H33.5V47.5H35V46ZM43 46V47.5H44.5V46H43ZM57.5 22C57.5 30.9484 51.1453 38.4159 42.7016 40.1299L43.2984 43.0699C53.1127 41.0778 60.5 32.4033 60.5 22H57.5ZM39 3.5C49.2173 3.5 57.5 11.7827 57.5 22H60.5C60.5 10.1259 50.8741 0.5 39 0.5V3.5ZM20.5 22C20.5 11.7827 28.7827 3.5 39 3.5V0.5C27.1259 0.5 17.5 10.1259 17.5 22H20.5ZM35.2984 40.1299C26.8547 38.4159 20.5 30.9484 20.5 22H17.5C17.5 32.4033 24.8873 41.0778 34.7016 43.0699L35.2984 40.1299ZM36.5 46V41.5999H33.5V46H36.5ZM43 44.5H35V47.5H43V44.5ZM41.5 41.5999V46H44.5V41.5999H41.5Z" fill="#D31E34"/>
<path d="M51 23.5C51 29.8513 45.6274 35 39 35C32.3726 35 27 29.8513 27 23.5" stroke="#D31E34" stroke-width="3"/>
<rect x="33" y="20.4768" width="9" height="9" transform="rotate(-46.0253 33 20.4768)" fill="#FD99A5"/>
<path d="M34 54H44V56C44 58.7614 41.7614 61 39 61C36.2386 61 34 58.7614 34 56V54Z" fill="#D31E34"/>
</svg>
