<svg width="86" height="86" viewBox="0 0 86 86" fill="none" xmlns="http://www.w3.org/2000/svg">
<path d="M17.2823 5.01977C16.8117 5.04672 16.118 5.12579 15.6567 5.20665C15.5686 5.22102 15.4411 5.24258 15.3698 5.25516L15.2442 5.27672L15.2067 5.39532C15.1448 5.59477 14.9892 6.14462 14.9086 6.44469C14.8655 6.60282 14.828 6.73219 14.8261 6.73399C14.8242 6.73579 14.7042 6.77532 14.5598 6.82204C14.1661 6.95141 13.7761 7.10594 13.3861 7.28563L13.0373 7.44735L12.7205 7.26766C12.2873 7.02149 11.7023 6.70704 11.678 6.70704C11.6498 6.70704 11.2242 6.98735 10.9036 7.21915C9.84047 7.98462 8.94797 8.8561 8.16234 9.89649C7.96734 10.157 7.78172 10.4212 7.78172 10.4427C7.78172 10.4607 8.14734 11.0842 8.39484 11.4849L8.55422 11.7437L8.39297 12.0599C8.21484 12.4139 8.01984 12.8667 7.89422 13.2243L7.81172 13.4615L7.73484 13.4795C7.69359 13.4902 7.45359 13.5513 7.20047 13.616C6.94734 13.6789 6.63984 13.7598 6.51609 13.7921L6.29109 13.8532L6.27797 13.9233C6.05672 15.102 6.01172 15.5441 6.01172 16.5C6.01172 17.3571 6.05859 17.8764 6.20859 18.6922C6.24047 18.8647 6.27047 19.0372 6.27609 19.0731C6.28547 19.1396 6.28922 19.1414 6.41484 19.1773C6.72047 19.2618 6.82359 19.2906 7.30359 19.4109C7.58109 19.481 7.80984 19.5403 7.80984 19.5421C7.81172 19.5439 7.85297 19.6589 7.90172 19.7973C8.03672 20.1746 8.19797 20.5484 8.38547 20.9239L8.55422 21.2581L8.43422 21.454C8.13422 21.9356 7.78172 22.5321 7.78172 22.5591C7.78172 22.5842 8.06859 22.9831 8.30297 23.2832C9.06234 24.2553 9.88172 25.0423 10.8848 25.7647C11.2261 26.0109 11.6498 26.293 11.678 26.293C11.6986 26.293 12.338 25.948 12.7673 25.7054L13.0373 25.5527L13.3486 25.6964C13.8155 25.9138 14.2917 26.0989 14.6948 26.2229C14.8242 26.2624 14.8298 26.266 14.8486 26.3361C15.1167 27.3082 15.233 27.7089 15.248 27.7197C15.2592 27.7287 15.833 27.8239 16.1311 27.8652C17.4155 28.0431 18.5855 28.0431 19.8698 27.8652C20.1698 27.8239 20.7417 27.7287 20.7548 27.7197C20.7661 27.7107 20.8842 27.3064 21.0286 26.7799C21.1073 26.4978 21.173 26.266 21.1748 26.2642C21.1767 26.2624 21.2836 26.2283 21.4092 26.187C21.8705 26.036 22.1742 25.9174 22.6523 25.6964L22.9636 25.5527L23.2336 25.7054C23.663 25.948 24.3023 26.293 24.323 26.293C24.3511 26.293 24.7748 26.0109 25.1142 25.7665C26.108 25.0495 26.9217 24.2697 27.6698 23.3173C27.9248 22.9921 28.2192 22.586 28.2192 22.5591C28.2192 22.5375 27.9736 22.1152 27.698 21.666C27.5892 21.4881 27.488 21.3228 27.473 21.2977C27.4467 21.2545 27.4523 21.2402 27.5517 21.0497C27.7617 20.649 28.0392 20.0003 28.1555 19.6391C28.1855 19.5457 28.1948 19.5349 28.2548 19.5206C29.0761 19.3193 29.6667 19.1612 29.6948 19.1342C29.7342 19.0965 29.8786 18.2394 29.933 17.7219C30.0586 16.5234 30.0061 15.4183 29.7605 14.1209L29.7098 13.8532L29.4848 13.7921C29.3611 13.7598 29.0536 13.6789 28.8005 13.616C28.5473 13.5513 28.3073 13.4902 28.2661 13.4795L28.1892 13.4615L28.1067 13.2243C27.9811 12.8667 27.7861 12.4139 27.608 12.0599L27.4467 11.7437L27.6061 11.4849C27.8592 11.0734 28.2192 10.4607 28.2192 10.4409C28.2192 10.414 27.923 10.0025 27.6848 9.69883C26.9292 8.7375 26.1005 7.94329 25.0973 7.21915C24.7786 6.98915 24.3511 6.70704 24.323 6.70704C24.2986 6.70704 23.7136 7.02149 23.2805 7.26766L22.9636 7.44735L22.6148 7.28563C22.2248 7.10594 21.8348 6.95141 21.4411 6.82204C21.2967 6.77532 21.1767 6.73579 21.1748 6.73399C21.173 6.73399 21.1148 6.53094 21.0473 6.28477C20.8617 5.60735 20.7736 5.31626 20.7511 5.29469C20.7042 5.25157 19.8736 5.12219 19.2755 5.0629C18.6511 5.0018 17.873 4.98563 17.2823 5.01977ZM18.473 13.8568C19.4836 14.0239 20.3292 14.7157 20.6536 15.6429C20.7605 15.952 20.783 16.1011 20.783 16.5C20.783 16.8989 20.7605 17.0481 20.6536 17.3571C20.3798 18.1388 19.7086 18.7802 18.8911 19.0426C18.5667 19.1468 18.4167 19.1666 18.0005 19.1666C17.5842 19.1666 17.4342 19.1468 17.1098 19.0426C16.2923 18.7802 15.6211 18.1388 15.3473 17.3571C15.2555 17.093 15.2236 16.9061 15.2123 16.5809C15.2048 16.3239 15.2086 16.2413 15.2405 16.0598C15.443 14.9331 16.3467 14.0563 17.513 13.8586C17.7867 13.8119 18.1936 13.8119 18.473 13.8568Z" fill="url(#paint0_linear)"/>
<rect x="1.5" y="46.5" width="13" height="29" rx="1.5" fill="#FD99A5" stroke="#D31E34" stroke-width="3"/>
<path d="M14.5 69.0238V52.5H26.2994C27.0713 52.5 27.8215 52.7552 28.4334 53.2258L31.9155 55.9044C33.3037 56.9722 35.064 57.4347 36.7978 57.187L46.505 55.8002C48.6135 55.499 50.5 57.1351 50.5 59.265V60.5V62.4766L52.4037 61.9447L80.0581 54.2177C82.2895 53.5942 84.5 55.2717 84.5 57.5886V57.8044C84.5 58.9822 83.9076 60.0811 82.9237 60.7284L54.0117 79.7494C50.1768 82.2724 45.3226 82.6738 41.1254 80.815L14.5 69.0238Z" fill="white" stroke="#D31E34" stroke-width="3"/>
<path d="M52.2212 62L39.5 66" stroke="#D31E34" stroke-width="3"/>
<path d="M8.38557 67L8.3856 74.3318" stroke="#D31E34" stroke-width="3"/>
<path d="M50.0356 37.6212L47.1586 40.9567C46.0765 42.2113 44.1971 42.334 42.961 41.2308L41.3126 39.7597C40.0764 38.6565 39.9516 36.7451 41.0337 35.4904L43.9107 32.1549" stroke="#D31E34" stroke-width="3"/>
<path d="M51.5352 33.9976L47.7735 38.3588L43.4861 34.5324L47.2477 30.1713L49.3914 32.0844L51.5352 33.9976Z" fill="white"/>
<path d="M70.2173 32.796L73.3242 35.9055C74.4953 37.0776 74.5108 38.9931 73.3589 40.184L71.8156 41.7794C70.6637 42.9703 68.7805 42.9856 67.6095 41.8135L64.5026 38.7041" stroke="#D31E34" stroke-width="3"/>
<path d="M66.7466 31.0663L70.8123 35.1354L66.812 39.2711L62.7463 35.202L64.7464 33.1342L66.7466 31.0663Z" fill="white"/>
<path d="M64.3242 12.5494L67.2214 9.2324C68.3113 7.98452 70.1914 7.87349 71.4206 8.9844L73.0605 10.4664C74.2897 11.5773 74.4026 13.4895 73.3127 14.7373L70.4155 18.0543" stroke="#D31E34" stroke-width="3"/>
<path d="M62.8027 16.1634L66.591 11.8261L70.855 15.6796L67.0666 20.0169L64.9347 18.0901L62.8027 16.1634Z" fill="white"/>
<path d="M44.1101 18.0872L41.1156 14.863C39.9881 13.649 40.0424 11.7342 41.2371 10.5861L42.8338 9.05167C44.0285 7.90363 45.911 7.9571 47.0385 9.17111L50.033 12.3952" stroke="#D31E34" stroke-width="3"/>
<path d="M47.5166 19.9446L43.5996 15.7272L47.7457 11.7429L51.6626 15.9602L49.5896 17.9524L47.5166 19.9446Z" fill="white"/>
<path d="M71.7962 25.2073C71.7962 33.558 65.1477 40.2838 56.9999 40.2838C48.8522 40.2838 42.2036 33.558 42.2036 25.2073C42.2036 16.8565 48.8522 10.1307 56.9999 10.1307C65.1477 10.1307 71.7962 16.8565 71.7962 25.2073Z" fill="#FFFEFE" stroke="#D31E34" stroke-width="3"/>
<path d="M66.0924 25.2072C66.0924 30.9189 61.8957 35.3108 56.9998 35.3108C52.1039 35.3108 47.9072 30.9189 47.9072 25.2072C47.9072 19.4955 52.1039 15.1036 56.9998 15.1036C61.8957 15.1036 66.0924 19.4955 66.0924 25.2072Z" fill="white" stroke="#D31E34" stroke-width="3"/>
<path d="M71.6665 21.063H74.8557C77.1444 21.063 78.9998 22.9184 78.9998 25.2071V25.2071C78.9998 27.4959 77.1444 29.3513 74.8557 29.3513H71.6665" stroke="#D31E34" stroke-width="3"/>
<path d="M68 22.3063H73.7037V28.1081H68V25.2072V22.3063Z" fill="white"/>
<path d="M52.9258 9.45947V6.07409C52.9258 3.82404 54.7498 2.00001 56.9999 2.00001V2.00001C59.2499 2.00001 61.0739 3.82404 61.0739 6.07409V9.45947" stroke="#D31E34" stroke-width="3"/>
<path d="M54.3062 13.1891V7.38735L59.6939 7.38735V13.1891L56.9999 13.1891H54.3062Z" fill="white"/>
<path d="M61.0742 40.5405V43.9259C61.0742 46.176 59.2502 48 57.0001 48V48C54.7501 48 52.9261 46.176 52.9261 43.9259V40.5405" stroke="#D31E34" stroke-width="3"/>
<path d="M59.6938 36.8109V42.8889H54.3061V36.8109H57.0001H59.6938Z" fill="white"/>
<path d="M42.3335 29.3513H39.1443C36.8556 29.3513 35.0002 27.4959 35.0002 25.2072V25.2072C35.0002 22.9184 36.8556 21.063 39.1443 21.063H42.3335" stroke="#D31E34" stroke-width="3"/>
<path d="M46 28.1081H40.2963V22.3063H46V25.2072V28.1081Z" fill="white"/>
<defs>
<linearGradient id="paint0_linear" x1="18.0052" y1="27.9987" x2="18.0052" y2="5.00218" gradientUnits="userSpaceOnUse">
<stop stop-color="#E6223A"/>
<stop offset="1" stop-color="#FED1D7"/>
</linearGradient>
</defs>
</svg>
