<svg width="810" height="537" viewBox="0 0 810 537" fill="none" xmlns="http://www.w3.org/2000/svg">
<g id="ilustra&#195;&#167;&#195;&#163;o">
<g id="1297119 2" clip-path="url(#clip0)">
<g id="Group">
<path id="Vector" d="M98.9643 222.202C97.6309 222.276 95.6653 222.492 94.3584 222.714C94.1087 222.753 93.7474 222.812 93.5456 222.847L93.1896 222.906L93.0834 223.23C92.9081 223.777 92.4671 225.283 92.2387 226.105C92.1165 226.538 92.0103 226.892 92.0049 226.897C91.9996 226.902 91.6596 227.01 91.2506 227.138C90.1349 227.493 89.0299 227.916 87.9249 228.408L86.9368 228.851L86.039 228.359C84.8118 227.685 83.1543 226.823 83.0853 226.823C83.0056 226.823 81.7996 227.591 80.8912 228.226C77.879 230.323 75.3503 232.71 73.1243 235.56C72.5718 236.273 72.0459 236.997 72.0459 237.056C72.0459 237.105 73.0818 238.813 73.7831 239.911L74.2346 240.619L73.7778 241.486C73.2731 242.455 72.7206 243.696 72.3646 244.675L72.1309 245.325L71.9131 245.374C71.7962 245.403 71.1162 245.571 70.399 245.748C69.6818 245.92 68.8106 246.142 68.4599 246.23L67.8224 246.398L67.7853 246.59C67.1584 249.818 67.0309 251.029 67.0309 253.648C67.0309 255.995 67.1637 257.418 67.5887 259.652C67.679 260.125 67.764 260.597 67.7799 260.696C67.8065 260.878 67.8171 260.883 68.1731 260.981C69.039 261.213 69.3312 261.291 70.6912 261.621C71.4774 261.813 72.1256 261.975 72.1256 261.98C72.1309 261.985 72.2478 262.3 72.3859 262.679C72.7684 263.713 73.2253 264.737 73.7565 265.765L74.2346 266.681L73.8946 267.217C73.0446 268.536 72.0459 270.17 72.0459 270.244C72.0459 270.313 72.8587 271.406 73.5228 272.228C75.6743 274.89 77.9959 277.046 80.8381 279.025C81.8049 279.699 83.0056 280.472 83.0853 280.472C83.1437 280.472 84.9553 279.527 86.1718 278.862L86.9368 278.444L87.8187 278.838C89.1415 279.433 90.4909 279.94 91.6331 280.28C91.9996 280.388 92.0156 280.398 92.0687 280.59C92.8284 283.253 93.1578 284.35 93.2003 284.38C93.2321 284.404 94.8578 284.665 95.7024 284.778C99.3415 285.266 102.657 285.266 106.296 284.778C107.146 284.665 108.766 284.404 108.803 284.38C108.835 284.355 109.17 283.248 109.579 281.806C109.802 281.033 109.988 280.398 109.993 280.393C109.998 280.388 110.301 280.295 110.657 280.181C111.964 279.768 112.825 279.443 114.179 278.838L115.061 278.444L115.826 278.862C117.043 279.527 118.854 280.472 118.913 280.472C118.992 280.472 120.193 279.699 121.155 279.03C123.97 277.066 126.276 274.93 128.396 272.321C129.118 271.43 129.952 270.318 129.952 270.244C129.952 270.185 129.256 269.028 128.475 267.798C128.167 267.311 127.88 266.858 127.838 266.789C127.763 266.671 127.779 266.632 128.061 266.11C128.656 265.012 129.442 263.235 129.771 262.246C129.856 261.99 129.883 261.961 130.053 261.921C132.38 261.37 134.053 260.937 134.133 260.863C134.245 260.76 134.654 258.412 134.808 256.994C135.164 253.712 135.015 250.685 134.319 247.131L134.176 246.398L133.538 246.23C133.187 246.142 132.316 245.92 131.599 245.748C130.882 245.571 130.202 245.403 130.085 245.374L129.867 245.325L129.633 244.675C129.277 243.696 128.725 242.455 128.22 241.486L127.763 240.619L128.215 239.911C128.932 238.784 129.952 237.105 129.952 237.051C129.952 236.977 129.113 235.85 128.438 235.018C126.297 232.385 123.949 230.21 121.107 228.226C120.204 227.596 118.992 226.823 118.913 226.823C118.844 226.823 117.186 227.685 115.959 228.359L115.061 228.851L114.073 228.408C112.968 227.916 111.863 227.493 110.747 227.138C110.338 227.01 109.998 226.902 109.993 226.897C109.988 226.897 109.823 226.341 109.632 225.667C109.106 223.811 108.856 223.014 108.792 222.955C108.66 222.837 106.306 222.482 104.612 222.32C102.842 222.153 100.638 222.108 98.9643 222.202ZM102.338 246.408C105.201 246.865 107.597 248.76 108.516 251.3C108.819 252.146 108.883 252.555 108.883 253.648C108.883 254.74 108.819 255.149 108.516 255.995C107.741 258.136 105.839 259.893 103.522 260.612C102.603 260.898 102.178 260.952 100.999 260.952C99.8196 260.952 99.3946 260.898 98.4756 260.612C96.1593 259.893 94.2574 258.136 93.4818 255.995C93.2215 255.272 93.1312 254.76 93.0993 253.869C93.0781 253.165 93.0887 252.939 93.179 252.442C93.7528 249.356 96.3134 246.954 99.6178 246.412C100.393 246.284 101.546 246.284 102.338 246.408Z" fill="url(#paint0_linear)"/>
</g>
</g>
<g id="146921 3" clip-path="url(#clip1)">
<g id="Group_2">
<path id="Vector_2" d="M610.606 402.544C607.764 402.669 604.241 403.025 604.179 403.203C604.154 403.266 604.389 404.868 604.711 406.773L605.304 410.228L604.982 410.301C604.809 410.343 603.586 410.542 602.263 410.741C599.346 411.191 597.282 411.557 596.207 411.83C595.762 411.945 594.847 412.165 594.167 412.322C593.487 412.479 592.659 412.688 592.313 412.793C591.979 412.908 591.139 413.159 590.459 413.368C589.779 413.578 588.803 413.902 588.283 414.101L587.332 414.447L585.688 411.222C584.785 409.443 584.019 407.935 583.97 407.872C583.871 407.747 583.648 407.82 580.509 409.097C577.666 410.249 572.586 412.709 571.795 413.316C571.659 413.421 571.362 413.578 571.14 413.672C570.484 413.955 567.172 416.017 566.171 416.771C565.936 416.949 565.664 417.137 565.565 417.19C565.478 417.231 565.441 417.326 565.478 417.388C565.528 417.451 566.702 418.687 568.099 420.131C569.496 421.586 570.608 422.801 570.596 422.843C570.571 422.874 570.114 423.23 569.57 423.628C565.454 426.611 561.498 430.16 559.014 433.092C558.693 433.468 558.396 433.72 558.309 433.688C558.223 433.657 556.69 432.736 554.91 431.626L551.672 429.626L551.449 429.867C551.19 430.15 550.053 431.532 549.435 432.317C548.248 433.803 545.319 438.19 544.651 439.436C544.503 439.718 544.058 440.545 543.675 441.268C542.896 442.681 542.093 444.272 542.043 444.492C542.006 444.628 542.612 444.838 547.791 446.554C549.904 447.245 549.768 447.015 549.051 448.648C548.421 450.061 548.063 450.941 547.828 451.632C547.729 451.946 547.519 452.563 547.37 452.993C547.037 453.956 546.715 455.191 546.394 456.688C546.27 457.306 546.122 457.861 546.085 457.923C545.974 458.07 545.281 461.65 545.281 462.069C545.281 462.498 545.553 462.498 540.955 462.059C538.953 461.86 537.297 461.703 537.284 461.713C537.161 461.839 537 465.995 537 469.429C537 472.862 537.161 477.018 537.284 477.144C537.297 477.155 538.953 476.998 540.955 476.799C545.553 476.359 545.281 476.359 545.281 476.778C545.281 477.207 545.974 480.787 546.085 480.934C546.122 480.997 546.27 481.551 546.394 482.169C546.715 483.666 547.037 484.901 547.37 485.865C547.519 486.294 547.729 486.911 547.828 487.225C548.063 487.916 548.421 488.796 549.051 490.209C549.768 491.842 549.904 491.612 547.791 492.303C542.612 494.02 542.006 494.229 542.043 494.365C542.093 494.585 542.896 496.176 543.675 497.59C544.058 498.312 544.503 499.128 544.651 499.422C545.319 500.667 548.248 505.054 549.435 506.54C550.053 507.325 551.19 508.707 551.449 508.99L551.672 509.231L554.91 507.231C556.69 506.122 558.223 505.2 558.309 505.169C558.396 505.138 558.693 505.389 559.014 505.766C561.214 508.362 564.267 511.178 567.901 513.973C569.879 515.491 570.015 515.585 570.348 515.774C570.497 515.868 570.62 515.973 570.62 516.015C570.62 516.056 569.483 517.281 568.099 518.726C566.702 520.171 565.528 521.406 565.478 521.469C565.441 521.532 565.478 521.626 565.565 521.668C565.664 521.72 565.936 521.908 566.171 522.086C567.172 522.84 570.484 524.902 571.14 525.185C571.362 525.279 571.659 525.436 571.795 525.541C572.586 526.148 577.666 528.608 580.509 529.76C583.648 531.037 583.871 531.11 583.97 530.985C584.019 530.922 584.785 529.415 585.688 527.635L587.332 524.41L588.283 524.756C588.803 524.955 589.779 525.279 590.459 525.489C591.139 525.698 591.979 525.949 592.313 526.065C592.659 526.169 593.487 526.379 594.167 526.536C594.847 526.693 595.762 526.912 596.207 527.028C597.282 527.3 599.346 527.666 602.263 528.116C603.586 528.315 604.809 528.514 604.982 528.556L605.304 528.629L604.711 532.084C604.389 533.979 604.154 535.591 604.179 535.654C604.216 535.759 604.945 535.863 607.553 536.115C609.123 536.272 613.029 536.429 615.242 536.429C617.022 536.429 621.409 536.198 622.843 536.031L623.461 535.957L623.016 532.293C622.72 529.823 622.621 528.608 622.707 528.556C622.769 528.514 623.251 528.462 623.77 528.42C624.734 528.357 624.969 528.326 627.726 527.886C629.963 527.541 630.26 527.478 631.125 527.279C631.533 527.185 632.373 526.986 632.979 526.85C635.426 526.295 640.272 524.808 641.631 524.191C641.903 524.075 642.175 523.971 642.249 523.971C642.311 523.971 643.114 525.468 644.029 527.3C644.944 529.121 645.722 530.66 645.784 530.713C645.883 530.807 646.242 530.671 649.047 529.498C652.768 527.938 655.277 526.682 659.096 524.452C660.147 523.835 661.519 522.966 661.68 522.798C661.791 522.694 661.247 522.024 659.158 519.689L656.488 516.716L656.785 516.517C656.946 516.402 657.502 516.046 658.009 515.732C659.109 515.03 661.63 513.083 663.46 511.513C664.918 510.267 667.749 507.598 668.293 506.959C668.837 506.331 669.158 505.965 669.566 505.546C669.776 505.326 670.048 505.033 670.184 504.876L670.431 504.593L673.954 506.802C677.328 508.917 677.489 509 677.662 508.802C678.614 507.765 678.675 507.681 680.047 505.881C681.222 504.331 683.892 500.259 684.485 499.108C684.732 498.647 685.128 497.914 685.362 497.485C686.055 496.26 686.722 494.753 686.598 494.658C686.549 494.616 684.744 493.978 682.606 493.235C680.468 492.502 678.7 491.895 678.675 491.874C678.651 491.863 678.824 491.382 679.059 490.816C679.763 489.131 680.715 486.597 680.987 485.708C681.135 485.247 681.333 484.608 681.432 484.294C682.087 482.347 682.791 478.725 682.927 476.652C683.014 475.427 683.014 475.417 683.372 475.459C683.842 475.532 691.666 476.129 691.691 476.108C691.852 475.919 692 472.653 692 469.429C692 466.204 691.852 462.938 691.691 462.75C691.666 462.729 683.842 463.325 683.372 463.399C683.014 463.44 683.014 463.43 682.927 462.205C682.791 460.132 682.087 456.51 681.432 454.563C681.333 454.249 681.135 453.61 680.987 453.15C680.715 452.26 679.763 449.726 679.059 448.041C678.824 447.476 678.651 446.994 678.675 446.984C678.7 446.963 680.468 446.355 682.606 445.623C684.744 444.879 686.549 444.241 686.598 444.199C686.722 444.105 686.055 442.597 685.362 441.372C685.128 440.943 684.732 440.21 684.485 439.75C683.892 438.598 681.222 434.526 680.047 432.976C678.675 431.176 678.614 431.092 677.662 430.056C677.489 429.857 677.328 429.94 673.954 432.055L670.431 434.264L670.184 433.981C670.048 433.824 669.776 433.531 669.566 433.311C669.158 432.893 668.837 432.526 668.293 431.898C667.749 431.26 664.918 428.59 663.46 427.344C661.63 425.774 659.109 423.827 658.009 423.125C657.502 422.811 656.946 422.455 656.785 422.34L656.488 422.141L659.158 419.168C661.247 416.834 661.791 416.164 661.68 416.059C661.519 415.891 660.147 415.023 659.096 414.405C655.277 412.175 652.768 410.919 649.047 409.359C646.242 408.186 645.883 408.05 645.784 408.145C645.722 408.197 644.944 409.736 644.029 411.557C643.114 413.389 642.311 414.886 642.249 414.886C642.175 414.886 641.903 414.782 641.631 414.667C640.272 414.049 635.426 412.562 632.979 412.008C632.373 411.871 631.533 411.673 631.125 411.578C630.26 411.379 629.963 411.317 627.726 410.971C624.969 410.531 624.734 410.5 623.77 410.437C623.251 410.395 622.769 410.343 622.707 410.301C622.621 410.249 622.72 409.034 623.016 406.564L623.461 402.9L622.843 402.826C619.889 402.491 614.611 402.366 610.606 402.544ZM617.59 420.121C623.597 420.362 629.629 421.524 636.193 423.712C639.11 424.685 643.114 426.507 646.328 428.318C648.689 429.658 653.028 432.683 654.931 434.327C656.847 435.991 659.801 438.87 660.061 439.331C660.147 439.498 660.753 440.252 661.396 441.006C666.488 446.931 670.134 454.72 671.346 462.258C671.766 464.885 671.877 466.319 671.877 469.429C671.877 472.538 671.766 473.972 671.346 476.6C670.134 484.137 666.488 491.926 661.396 497.851C660.753 498.595 660.147 499.348 660.061 499.526C659.801 499.987 656.847 502.866 654.931 504.53C653.028 506.174 648.689 509.199 646.328 510.539C637.577 515.481 627.503 518.339 617.368 518.736C609.111 519.071 602.461 518.182 594.291 515.68C591.485 514.821 589.742 514.141 586.998 512.832C581.312 510.121 578.086 508.016 573.216 503.798C571.09 501.976 569.607 500.5 568.482 499.128C565.8 495.831 565.318 495.192 563.933 493.088C561.066 488.712 558.816 483.226 557.766 478.065C556.641 472.465 556.641 466.393 557.766 460.792C558.816 455.631 561.066 450.145 563.933 445.769C565.318 443.665 565.8 443.026 568.482 439.729C569.607 438.357 571.09 436.881 573.216 435.06C576.961 431.814 579.446 430.056 583.179 427.951C585.033 426.905 589.408 424.863 591.077 424.256C593.858 423.23 597.677 422.12 600.347 421.545C606.28 420.267 611.187 419.87 617.59 420.121Z" fill="url(#paint1_linear)"/>
</g>
</g>
<g id="Monitor">
<path id="back" d="M273.156 64.0157C273.173 61.7911 274.658 59.8457 276.8 59.2424L277.136 59.1476L468.143 74.7301C470.726 74.9409 472.72 77.0908 472.736 79.6827L473.498 203.113L276.741 210.905H272L273.156 64.0157Z" fill="#282F40"/>
<path id="front" d="M276.741 66.0383C276.741 63.1231 279.225 60.8261 282.131 61.0536L466.517 75.4838C469.12 75.6875 471.127 77.8585 471.127 80.4686V196.435L276.741 203.484V66.0383Z" fill="url(#paint2_linear)"/>
<g id="brilho">
<path id="Rectangle 97" d="M345.883 66.1975L403.962 70.6501L335.215 201.258L286.224 203.113L345.883 66.1975Z" fill="url(#paint3_linear)"/>
<path id="Rectangle 98" d="M417.79 71.7632L460.065 75.1026L376.305 199.774L342.722 200.887L417.79 71.7632Z" fill="url(#paint4_linear)"/>
<path id="Rectangle 99" d="M471.128 112.949V165.638L445.842 197.177L411.073 198.661L471.128 112.949Z" fill="url(#paint5_linear)"/>
</g>
<g id="base">
<path id="Rectangle 100" d="M341.536 208.308L354.97 207.566L352.994 233.539H340.746L341.536 208.308Z" fill="#586073"/>
<path id="Rectangle 101" d="M354.575 206.453H364.057L362.081 233.539H352.204L354.575 206.453Z" fill="#282F40"/>
<path id="Ellipse 22" d="M417.889 239.122C417.89 239.122 417.887 239.127 417.88 239.136C417.885 239.127 417.889 239.122 417.889 239.122ZM415.146 238.227C416.323 238.671 417.1 239.082 417.55 239.421C417.091 239.749 416.304 240.143 415.115 240.558C412.706 241.4 409.114 242.177 404.544 242.824C395.434 244.112 382.793 244.835 368.794 244.669C354.795 244.504 342.177 243.482 333.104 241.978C328.553 241.224 324.983 240.362 322.598 239.464C321.42 239.02 320.644 238.608 320.193 238.269C320.653 237.941 321.44 237.548 322.629 237.132C325.037 236.29 328.629 235.514 333.2 234.867C342.309 233.578 354.951 232.856 368.95 233.021C382.949 233.187 395.567 234.209 404.639 235.712C409.191 236.467 412.761 237.328 415.146 238.227ZM319.862 237.962C319.863 237.962 319.866 237.967 319.871 237.977C319.864 237.967 319.862 237.962 319.862 237.962ZM319.854 238.569C319.854 238.568 319.856 238.564 319.864 238.554C319.858 238.564 319.855 238.569 319.854 238.569ZM417.872 239.714C417.879 239.723 417.882 239.728 417.881 239.728C417.881 239.728 417.877 239.723 417.872 239.714Z" fill="#4A5162" stroke="#1E263A" stroke-width="4"/>
<path id="Ellipse 21" d="M419.863 238.852C419.811 242.729 396.96 245.602 368.824 245.269C340.688 244.936 317.922 241.523 317.974 237.646C318.026 233.77 340.688 230.238 368.824 230.571C396.96 230.904 419.915 234.975 419.863 238.852Z" fill="#586073"/>
</g>
</g>
<g id="Computador">
<g id="base_2">
<path id="Rectangle 104" d="M203.806 133.261L211.313 132.519L213.289 302.829H203.806L195.509 300.602V134.374L203.806 133.261Z" fill="#858FA9"/>
<path id="Rectangle 102" d="M208.152 137.326C208.152 134.496 210.499 132.23 213.327 132.329L245.997 133.473C248.689 133.567 250.822 135.776 250.822 138.469V296.586C250.822 299.245 248.741 301.439 246.085 301.579L213.415 303.294C210.554 303.445 208.152 301.166 208.152 298.301V137.326Z" fill="url(#paint6_linear)"/>
<path id="Rectangle 103" d="M156 144.938C156 142.485 157.78 140.394 160.202 140.002L198.404 133.827C201.444 133.335 204.201 135.683 204.201 138.763V296.626C204.201 299.931 201.051 302.327 197.866 301.444L159.665 290.858C157.499 290.258 156 288.286 156 286.039V144.938Z" fill="url(#paint7_linear)"/>
</g>
<g id="painel">
<path id="Rectangle 105" d="M208.152 138.084L250.823 139.94V213.036H208.152V138.084Z" fill="#697AA0"/>
<rect id="Rectangle 106" x="212.104" y="141.053" width="6.3215" height="63.8199" fill="#516081"/>
<ellipse id="Ellipse 23" cx="241.34" cy="146.247" rx="3.95094" ry="3.71046" fill="#516081"/>
<ellipse id="Ellipse 24" cx="241.34" cy="146.247" rx="0.790188" ry="0.742092" fill="white"/>
<ellipse id="Ellipse 25" cx="241.735" cy="165.171" rx="1.97547" ry="1.85523" fill="#BBC3D5"/>
<ellipse id="Ellipse 26" cx="241.735" cy="172.592" rx="1.97547" ry="1.85523" fill="#BBC3D5"/>
<rect id="Rectangle 107" x="235.809" y="184.094" width="3.95094" height="7.42092" rx="1" fill="#516081"/>
<rect id="Rectangle 109" x="235.809" y="193.741" width="3.95094" height="7.42092" rx="1" fill="#516081"/>
<rect id="Rectangle 108" x="242.131" y="184.094" width="3.95094" height="7.42092" rx="1" fill="#516081"/>
<rect id="Rectangle 110" x="242.131" y="193.741" width="3.95094" height="7.42092" rx="1" fill="#516081"/>
</g>
</g>
<g id="Scanner">
<g id="base_3">
<path id="Rectangle 121" d="M268.531 388.027L300.534 397.674L309.226 413.629L270.507 399.53L268.531 388.027Z" fill="#1B2234"/>
<path id="Rectangle 113" d="M403.654 466.689L528.503 445.91L521.392 460.381L403.654 482.644V466.689Z" fill="#3F4B6C"/>
<path id="Rectangle 112" d="M270.112 411.032L404.839 466.689V482.273L301.324 437.376H293.027L273.668 428.471L270.112 411.032Z" fill="#1D294A"/>
<path id="Rectangle 111" d="M270.507 398.045L407.209 451.105C455.314 444.567 482.065 440.716 526.923 431.439C528.266 437.268 528.535 440.515 528.503 446.281C484.905 455.609 460.509 459.932 417.087 466.318C409.793 467.52 406.716 467.426 402.468 466.318L269.717 411.774L270.507 398.045Z" fill="url(#paint8_linear)"/>
<path id="Rectangle 114" d="M297.768 398.416L408 382.461L423.803 393.593L526.923 431.439C484.427 441.288 458.553 445.759 408 451.476L306.46 412.145L297.768 398.416Z" fill="#E3E3E3"/>
</g>
<g id="top">
<path id="Rectangle 119" d="M281 276.299C280.576 275.051 281.453 273.741 282.768 273.659L321.197 271.24C322.068 271.185 322.873 271.7 323.188 272.514L332.311 296.086L289.245 300.538L281 276.299Z" fill="url(#paint9_linear)"/>
<path id="Rectangle 120" d="M263 302.687L264.975 301.944L305.275 298.976V330.144L274.458 341.275L263 302.687Z" fill="#495165"/>
<path id="Rectangle 118" d="M264.975 301.944L358.218 293.039L372.836 322.723L278.014 337.936L264.975 301.944Z" fill="#C3CBDD"/>
<path id="Rectangle 116" d="M277.223 333.483L393.381 319.755C422.071 347.171 424.166 360.881 409.975 383.203L291.842 400.272L277.223 333.483Z" fill="url(#paint10_linear)"/>
<path id="Rectangle 115" d="M266.161 358.343L276.433 333.483C303.483 363.296 305.596 377.622 291.447 399.901L268.136 389.882L266.161 358.343Z" fill="url(#paint11_linear)"/>
<path id="Rectangle 117" d="M300.139 373.927C350.573 383.861 375.358 377.953 418.272 363.167C417.463 368.253 416.442 371.374 413.136 377.638C406.706 377.116 402.057 376.994 295.398 392.851C298.706 386.554 299.999 382.602 300.139 373.927Z" fill="url(#paint12_linear)"/>
</g>
<g id="painel_2">
<path id="Rectangle 122" d="M377.577 324.949L389.825 323.465L398.517 332.741L385.479 333.854L377.577 324.949Z" fill="url(#paint13_linear)"/>
<path id="Rectangle 123" d="M390.22 333.483L389.825 323.465L398.517 332.741L390.22 333.483Z" fill="url(#paint14_linear)"/>
<ellipse id="Ellipse 27" cx="398.122" cy="339.049" rx="2.37056" ry="2.22628" fill="#C4C4C4"/>
<ellipse id="Ellipse 28" cx="401.283" cy="346.47" rx="2.37056" ry="2.22628" fill="#C4C4C4"/>
</g>
</g>
<g id="Notebook">
<path id="Rectangle 126" d="M457.692 364.04L614.939 362.927L621.295 373.568C622.494 375.575 621.039 378.121 618.701 378.106L454.575 377.062C452.185 377.047 450.772 374.38 452.101 372.394L457.692 364.04Z" fill="#1B2234"/>
<path id="Rectangle 124" d="M465.594 262.148C465.594 261.043 466.489 260.148 467.594 260.148H604.247C605.352 260.148 606.247 261.043 606.247 262.148V346.972H465.594V262.148Z" fill="#586073"/>
<path id="Rectangle 125" d="M465.594 346.972H606.247L622.051 374.801L450.975 374.059L465.594 346.972Z" fill="url(#paint15_linear)"/>
<rect id="Rectangle 127" x="468.755" y="266.084" width="134.332" height="71.9829" fill="url(#paint16_linear)"/>
<path id="Rectangle 128" d="M509.054 266.084H554.095L513.005 338.067H483.768L509.054 266.084Z" fill="url(#paint17_linear)"/>
<path id="Rectangle 129" d="M564.42 266.084H596.37L537.501 338.067H520.512L564.42 266.084Z" fill="url(#paint18_linear)"/>
</g>
<path id="@" d="M108.172 139.016C76.3356 137.521 60.8665 128.337 61.7652 111.465L64.1166 67.3193C64.3106 63.6765 65.2539 60.4052 66.9465 57.5055C68.7401 54.5144 71.0784 52.1256 73.9615 50.3389C79.7276 46.7656 86.3358 44.5293 93.786 43.63C100.464 42.7904 106.967 42.5193 113.297 42.8167C118.667 43.0689 123.779 43.6455 128.634 44.5463C133.489 45.4471 138.606 46.8407 143.985 48.7272C149.647 50.723 154.054 53.7171 157.206 57.7093C160.358 61.7015 161.791 66.3818 161.505 71.7502L159.644 106.693C159.22 114.649 152.823 118.337 140.452 117.756L135.993 117.547C132.445 117.38 129.21 116.747 126.289 115.649C123.367 114.551 121.705 113.271 121.302 111.811C119.579 115.286 114.977 116.848 107.497 116.496C101.744 116.226 97.4061 115.542 94.4844 114.443C91.5628 113.345 89.4945 111.566 88.2796 109.106C87.1658 106.555 86.739 102.835 86.9994 97.9463L87.8649 81.6973C88.1151 77 89.0258 73.4388 90.597 71.0139C92.1682 68.5891 94.6574 66.9761 98.0648 66.1752C101.568 65.3787 106.58 65.1336 113.101 65.44C119.622 65.7463 124.439 66.4531 127.552 67.5604C130.666 68.6677 132.734 70.4467 133.757 72.8974C134.876 75.3525 135.305 79.0246 135.045 83.9137L133.95 104.477C133.878 105.819 134.213 106.747 134.955 107.263C135.792 107.783 137.266 108.092 139.376 108.191C141.485 108.29 142.886 108.164 143.578 107.812C144.37 107.369 144.805 106.428 144.882 104.99L146.666 71.4856C147.228 60.9406 135.953 55.1252 112.843 54.0395C109.295 53.8728 106.317 53.829 103.909 53.9081C101.603 53.8959 98.9479 54.1075 95.9446 54.5431C92.5525 55.0565 89.819 55.841 87.7439 56.8968C85.674 57.8567 83.8687 59.2615 82.3282 61.1112C80.6815 63.1481 79.7842 65.5566 79.6361 68.3367L77.3613 111.044C76.8099 121.397 87.3702 127.083 109.042 128.101C115.371 128.399 126.94 127.789 143.748 126.272L143.158 137.344C126.163 138.756 114.502 139.314 108.172 139.016ZM111.183 106.867C113.676 106.984 115.41 106.921 116.384 106.679C117.459 106.345 118.169 105.657 118.513 104.616C118.952 103.58 119.244 101.719 119.387 99.0353L120.183 84.0805C120.336 81.2046 120.252 79.1824 119.93 78.014C119.612 76.7498 118.889 75.8989 117.758 75.4614C116.724 75.0283 114.864 74.7488 112.179 74.6226C109.59 74.501 107.707 74.6528 106.531 75.0781C105.456 75.412 104.693 76.193 104.243 77.4213C103.798 78.5536 103.502 80.5098 103.354 83.2899L102.481 99.6826C102.358 101.983 102.418 103.572 102.659 104.448C102.901 105.324 103.446 105.927 104.294 106.255C105.242 106.492 107.011 106.671 109.6 106.792L111.183 106.867Z" fill="url(#paint19_linear)"/>
<path id="Union" fill-rule="evenodd" clip-rule="evenodd" d="M542.125 173C539.364 173 537.125 175.239 537.125 178V194.521H520C517.239 194.521 515 196.759 515 199.521V206.589C515 209.35 517.239 211.589 520 211.589H537.125V228.852C537.125 231.613 539.364 233.852 542.125 233.852H550.3C553.061 233.852 555.3 231.613 555.3 228.852V211.589H574.795C577.557 211.589 579.795 209.35 579.795 206.589V199.521C579.795 196.759 577.557 194.521 574.795 194.521H555.3V178C555.3 175.239 553.061 173 550.3 173H542.125Z" fill="url(#paint20_linear)"/>
<g id="Group 56">
<path id="01001_" d="M21.6 330.46C27.168 330.46 31.38 332.704 34.236 337.192C37.092 341.68 38.52 348.028 38.52 356.236C38.52 364.492 37.092 370.876 34.236 375.388C31.38 379.876 27.168 382.12 21.6 382.12C16.032 382.12 11.82 379.876 8.964 375.388C6.108 370.876 4.68 364.492 4.68 356.236C4.68 348.028 6.108 341.68 8.964 337.192C11.82 332.704 16.032 330.46 21.6 330.46ZM21.6 336.616C18.744 336.616 16.548 338.14 15.012 341.188C13.476 344.212 12.708 349.228 12.708 356.236C12.708 361.348 13.02 365.332 13.644 368.188L27.684 339.532C26.988 338.5 26.136 337.756 25.128 337.3C24.12 336.844 22.944 336.616 21.6 336.616ZM30.492 356.236C30.492 351.652 30.24 347.992 29.736 345.256L15.876 373.552C17.172 375.16 19.08 375.964 21.6 375.964C24.48 375.964 26.676 374.452 28.188 371.428C29.724 368.404 30.492 363.34 30.492 356.236ZM81.3319 374.812V381.148H51.2719V374.812H63.4039V339.748L52.4599 346.48L49.0039 340.828L64.2679 331.468H71.3959V374.812H81.3319ZM107.944 330.46C113.512 330.46 117.724 332.704 120.58 337.192C123.436 341.68 124.864 348.028 124.864 356.236C124.864 364.492 123.436 370.876 120.58 375.388C117.724 379.876 113.512 382.12 107.944 382.12C102.376 382.12 98.1638 379.876 95.3078 375.388C92.4518 370.876 91.0238 364.492 91.0238 356.236C91.0238 348.028 92.4518 341.68 95.3078 337.192C98.1638 332.704 102.376 330.46 107.944 330.46ZM107.944 336.616C105.088 336.616 102.892 338.14 101.356 341.188C99.8198 344.212 99.0518 349.228 99.0518 356.236C99.0518 361.348 99.3638 365.332 99.9878 368.188L114.028 339.532C113.332 338.5 112.48 337.756 111.472 337.3C110.464 336.844 109.288 336.616 107.944 336.616ZM116.836 356.236C116.836 351.652 116.584 347.992 116.08 345.256L102.22 373.552C103.516 375.16 105.424 375.964 107.944 375.964C110.824 375.964 113.02 374.452 114.532 371.428C116.068 368.404 116.836 363.34 116.836 356.236ZM151.116 330.46C156.684 330.46 160.896 332.704 163.752 337.192C166.608 341.68 168.036 348.028 168.036 356.236C168.036 364.492 166.608 370.876 163.752 375.388C160.896 379.876 156.684 382.12 151.116 382.12C145.548 382.12 141.336 379.876 138.48 375.388C135.624 370.876 134.196 364.492 134.196 356.236C134.196 348.028 135.624 341.68 138.48 337.192C141.336 332.704 145.548 330.46 151.116 330.46ZM151.116 336.616C148.26 336.616 146.064 338.14 144.528 341.188C142.992 344.212 142.224 349.228 142.224 356.236C142.224 361.348 142.536 365.332 143.16 368.188L157.2 339.532C156.504 338.5 155.652 337.756 154.644 337.3C153.636 336.844 152.46 336.616 151.116 336.616ZM160.008 356.236C160.008 351.652 159.756 347.992 159.252 345.256L145.392 373.552C146.688 375.16 148.596 375.964 151.116 375.964C153.996 375.964 156.192 374.452 157.704 371.428C159.24 368.404 160.008 363.34 160.008 356.236ZM210.848 374.812V381.148H180.788V374.812H192.92V339.748L181.976 346.48L178.52 340.828L193.784 331.468H200.912V374.812H210.848ZM219.459 394.324V387.664H255.459V394.324H219.459Z" fill="url(#paint21_linear)"/>
</g>
<g id="Group_3">
<path id="Vector_3" d="M563.477 34.3623C561.916 33.2252 560.862 32.5436 558.788 31.3124C558 30.853 554.192 28.8289 553.237 28.3627C552.231 27.8766 547.955 26.1718 545.45 25.2485C540.97 23.6017 535.233 22.2346 529.692 21.4952C524.478 20.7958 517.799 20.5351 516.27 20.9647C514.709 21.4111 513.448 22.5464 512.946 23.9505C512.731 24.5454 512.721 25.8794 512.922 26.4697C513.406 27.9035 514.555 28.8911 516.232 29.324C516.964 29.5085 517.464 29.5391 519.762 29.5641C525.305 29.6233 531.841 30.5463 537.06 32.0054C540.744 33.0282 546.475 35.2297 549.501 36.7676C552.74 38.4227 556.575 40.9191 559.726 43.4265C563.096 46.1092 565.029 48.109 568.316 52.3081C570.492 55.0885 572.406 58.3214 573.842 61.656C575.956 66.558 577.047 71.1389 577.375 76.4341C577.453 77.6704 577.675 78.3505 578.237 79.0811C578.91 79.963 580.15 80.6455 581.459 80.8481C582.812 81.055 584.306 80.8388 585.411 80.2705C585.684 80.1311 586.145 79.796 586.549 79.4463C587.351 78.7524 587.713 78.2124 587.856 77.5182C588.01 76.7493 587.741 73.1584 587.334 70.5272C586.199 63.2692 583.116 55.8026 578.63 49.4109C576.554 46.4582 575.027 44.6135 572.763 42.3188C572.353 41.9088 571.709 41.2493 571.331 40.8651C569.666 39.1832 566.52 36.5747 563.477 34.3623Z" fill="url(#paint22_linear)"/>
<path id="Vector_4" d="M551.275 46.7042C549.786 45.6346 548.797 45.0153 547.163 44.1244C543.342 42.037 541.24 41.067 538.299 40.0266C531.812 37.7477 524.498 36.5406 517.999 36.6741C516.086 36.7144 515.634 36.8049 514.625 37.3761C513.49 38.0248 512.732 39.0152 512.469 40.1903C512.189 41.4456 512.417 42.5187 513.17 43.5369C513.634 44.1581 514.049 44.4882 514.835 44.852C515.693 45.2513 516.27 45.3651 517.621 45.3913C522.185 45.4792 524.505 45.7002 527.695 46.3309C534.352 47.644 541.139 50.6861 545.935 54.5036C547.595 55.8242 549.838 58.0395 551.261 59.7483C555.424 64.771 557.83 70.7653 558.273 77.2208C558.374 78.738 558.524 79.287 559.028 79.971C559.617 80.7752 560.793 81.5016 561.891 81.757C562.681 81.9348 564.223 81.9246 565.02 81.741C567.066 81.2512 568.572 79.8074 568.807 78.1069C568.882 77.5685 568.683 74.736 568.468 73.3384C567.263 65.2593 563.225 57.6515 556.794 51.2961C555.266 49.797 553.294 48.1544 551.275 46.7042Z" fill="url(#paint23_linear)"/>
<path id="Vector_5" d="M538.295 58.4805C537.577 58.0036 535.782 56.952 534.872 56.4903C530.873 54.4501 526.38 53.1388 521.901 52.709C520.209 52.5474 517.406 52.4867 516.461 52.5942C514.085 52.8633 512.532 54.1433 512.066 56.2049C511.529 58.5869 513.202 60.7569 515.889 61.1869C516.178 61.2385 517.074 61.2809 517.881 61.2936C519.698 61.3246 520.55 61.384 521.833 61.5766C525.071 62.0572 527.883 63.058 530.571 64.6938C531.689 65.3737 533.898 67.1325 534.719 68.0054C536.918 70.3222 538.366 73.1935 538.974 76.4141C539.044 76.7737 539.141 77.6691 539.192 78.4116C539.325 80.3102 539.635 80.9349 540.865 81.8299C541.914 82.5912 543.02 82.9154 544.459 82.8758C546.818 82.8249 548.751 81.6793 549.484 79.9035C549.694 79.3991 549.721 79.1276 549.697 78.0285C549.566 73.0595 547.65 68.1276 544.205 63.9175C542.88 62.3076 542.08 61.5139 540.311 60.0739C539.39 59.3309 538.489 58.614 538.295 58.4805Z" fill="url(#paint24_linear)"/>
<path id="Vector_6" d="M526.659 69.7418C523.6 67.9257 519.689 67.5042 516.045 68.5938C513.297 69.4127 510.93 71.2466 509.739 73.4823C508.077 76.61 508.578 80.3706 511.023 82.9442C511.575 83.5306 512.702 84.427 513.437 84.8658C516.728 86.8355 521.804 86.9481 525.532 85.1295C527.124 84.354 528.826 82.8809 529.692 81.5284C531.942 77.9994 531.199 73.5017 527.914 70.6988C527.473 70.3166 526.904 69.8845 526.659 69.7418Z" fill="url(#paint25_linear)"/>
</g>
<g id="Group_4">
<path id="Vector_7" d="M695.061 285.18C691.046 285.348 686.072 285.826 685.984 286.064C685.949 286.149 686.281 288.297 686.735 290.852L687.573 295.486L687.119 295.584C686.874 295.641 685.146 295.907 683.279 296.174C679.159 296.778 676.245 297.269 674.726 297.634C674.098 297.789 672.806 298.084 671.846 298.294C670.886 298.505 669.716 298.786 669.228 298.926C668.756 299.081 667.57 299.418 666.61 299.699C665.65 299.979 664.271 300.415 663.538 300.681L662.194 301.145L659.872 296.82C658.598 294.433 657.516 292.411 657.446 292.327C657.306 292.158 656.992 292.257 652.559 293.97C648.544 295.514 641.37 298.814 640.253 299.628C640.061 299.769 639.642 299.979 639.328 300.106C638.403 300.485 633.725 303.251 632.311 304.262C631.979 304.501 631.595 304.753 631.456 304.824C631.334 304.88 631.281 305.006 631.334 305.09C631.403 305.175 633.062 306.832 635.034 308.769C637.006 310.721 638.577 312.35 638.56 312.406C638.525 312.448 637.879 312.926 637.111 313.459C631.299 317.461 625.713 322.221 622.205 326.153C621.751 326.658 621.332 326.995 621.21 326.953C621.088 326.911 618.923 325.675 616.41 324.187L611.837 321.505L611.522 321.828C611.156 322.207 609.55 324.06 608.677 325.113C607.002 327.107 602.865 332.991 601.922 334.662C601.713 335.041 601.085 336.15 600.543 337.119C599.444 339.014 598.309 341.149 598.239 341.444C598.187 341.626 599.042 341.907 606.356 344.21C609.341 345.137 609.149 344.828 608.136 347.018C607.246 348.914 606.74 350.093 606.408 351.02C606.269 351.441 605.972 352.27 605.762 352.845C605.291 354.137 604.837 355.794 604.384 357.802C604.209 358.63 603.999 359.375 603.947 359.459C603.79 359.655 602.813 364.458 602.813 365.019C602.813 365.595 603.197 365.595 596.703 365.005C593.876 364.738 591.537 364.528 591.519 364.542C591.345 364.71 591.118 370.285 591.118 374.89C591.118 379.496 591.345 385.07 591.519 385.239C591.537 385.253 593.876 385.042 596.703 384.775C603.197 384.186 602.813 384.186 602.813 384.747C602.813 385.323 603.79 390.125 603.947 390.322C603.999 390.406 604.209 391.15 604.384 391.979C604.837 393.987 605.291 395.644 605.762 396.935C605.972 397.511 606.269 398.339 606.408 398.761C606.74 399.687 607.246 400.867 608.136 402.763C609.149 404.953 609.341 404.644 606.356 405.571C599.042 407.874 598.187 408.154 598.239 408.337C598.309 408.632 599.444 410.766 600.543 412.662C601.085 413.631 601.713 414.726 601.922 415.119C602.865 416.79 607.002 422.673 608.677 424.667C609.55 425.72 611.156 427.574 611.522 427.953L611.837 428.276L616.41 425.594C618.923 424.105 621.088 422.87 621.21 422.828C621.332 422.786 621.751 423.123 622.205 423.628C625.312 427.11 629.623 430.887 634.755 434.637C637.547 436.673 637.739 436.799 638.211 437.052C638.42 437.178 638.595 437.318 638.595 437.375C638.595 437.431 636.989 439.074 635.034 441.011C633.062 442.949 631.403 444.606 631.334 444.69C631.281 444.774 631.334 444.901 631.456 444.957C631.595 445.027 631.979 445.28 632.311 445.519C633.725 446.53 638.403 449.296 639.328 449.675C639.642 449.801 640.061 450.012 640.253 450.152C641.37 450.967 648.544 454.266 652.559 455.811C656.992 457.524 657.306 457.622 657.446 457.454C657.516 457.37 658.598 455.348 659.872 452.961L662.194 448.636L663.538 449.099C664.271 449.366 665.65 449.801 666.61 450.082C667.57 450.363 668.756 450.7 669.228 450.854C669.716 450.995 670.886 451.276 671.846 451.486C672.806 451.697 674.098 451.992 674.726 452.146C676.245 452.511 679.159 453.003 683.279 453.606C685.146 453.873 686.874 454.14 687.119 454.196L687.573 454.295L686.735 458.928C686.281 461.47 685.949 463.632 685.984 463.716C686.037 463.857 687.066 463.997 690.749 464.334C692.966 464.545 698.482 464.755 701.606 464.755C704.12 464.755 710.316 464.446 712.341 464.222L713.214 464.124L712.585 459.209C712.166 455.895 712.027 454.266 712.149 454.196C712.236 454.14 712.917 454.07 713.65 454.014C715.011 453.929 715.343 453.887 719.236 453.298C722.395 452.834 722.814 452.75 724.036 452.483C724.612 452.357 725.798 452.09 726.654 451.907C730.11 451.163 736.952 449.169 738.872 448.341C739.256 448.186 739.64 448.046 739.745 448.046C739.832 448.046 740.967 450.054 742.258 452.511C743.55 454.954 744.65 457.019 744.737 457.089C744.876 457.215 745.383 457.033 749.345 455.46C754.599 453.368 758.142 451.683 763.536 448.692C765.019 447.864 766.957 446.698 767.184 446.473C767.341 446.333 766.573 445.434 763.623 442.303L759.853 438.315L760.272 438.049C760.498 437.894 761.284 437.417 762 436.995C763.553 436.055 767.114 433.443 769.697 431.337C771.757 429.666 775.754 426.085 776.522 425.229C777.29 424.386 777.744 423.895 778.32 423.333C778.616 423.038 779 422.645 779.192 422.435L779.542 422.055L784.516 425.018C789.281 427.855 789.508 427.967 789.753 427.7C791.097 426.31 791.184 426.198 793.121 423.783C794.779 421.704 798.55 416.242 799.388 414.698C799.737 414.08 800.295 413.097 800.627 412.521C801.604 410.878 802.547 408.856 802.372 408.73C802.302 408.674 799.754 407.817 796.734 406.82C793.715 405.838 791.219 405.023 791.184 404.995C791.149 404.981 791.393 404.335 791.725 403.577C792.72 401.316 794.064 397.918 794.448 396.725C794.657 396.107 794.937 395.25 795.076 394.829C796.001 392.217 796.996 387.359 797.188 384.579C797.31 382.936 797.31 382.922 797.817 382.978C798.48 383.076 809.529 383.877 809.564 383.849C809.791 383.596 810 379.215 810 374.89C810 370.566 809.791 366.185 809.564 365.932C809.529 365.904 798.48 366.704 797.817 366.802C797.31 366.859 797.31 366.845 797.188 365.202C796.996 362.422 796.001 357.563 795.076 354.951C794.937 354.53 794.657 353.674 794.448 353.056C794.064 351.862 792.72 348.464 791.725 346.204C791.393 345.445 791.149 344.8 791.184 344.785C791.219 344.757 793.715 343.943 796.734 342.96C799.754 341.963 802.302 341.107 802.372 341.05C802.547 340.924 801.604 338.902 800.627 337.259C800.295 336.684 799.737 335.701 799.388 335.083C798.55 333.538 794.779 328.076 793.121 325.998C791.184 323.583 791.097 323.471 789.753 322.081C789.508 321.814 789.281 321.926 784.516 324.762L779.542 327.725L779.192 327.346C779 327.135 778.616 326.742 778.32 326.447C777.744 325.886 777.29 325.394 776.522 324.552C775.754 323.695 771.757 320.115 769.697 318.444C767.114 316.338 763.553 313.726 762 312.785C761.284 312.364 760.498 311.886 760.272 311.732L759.853 311.465L763.623 307.477C766.573 304.346 767.341 303.448 767.184 303.307C766.957 303.082 765.019 301.917 763.536 301.089C758.142 298.098 754.599 296.413 749.345 294.321C745.383 292.748 744.876 292.565 744.737 292.692C744.65 292.762 743.55 294.826 742.258 297.269C740.967 299.727 739.832 301.735 739.745 301.735C739.64 301.735 739.256 301.594 738.872 301.44C736.952 300.611 730.11 298.617 726.654 297.873C725.798 297.691 724.612 297.424 724.036 297.297C722.814 297.031 722.395 296.946 719.236 296.483C715.343 295.893 715.011 295.851 713.65 295.767C712.917 295.711 712.236 295.641 712.149 295.584C712.027 295.514 712.166 293.885 712.585 290.572L713.214 285.657L712.341 285.559C708.169 285.109 700.716 284.941 695.061 285.18ZM704.923 308.755C713.406 309.078 721.924 310.637 731.192 313.571C735.311 314.877 740.967 317.32 745.505 319.75C748.839 321.547 754.965 325.605 757.653 327.809C760.359 330.042 764.53 333.903 764.897 334.521C765.019 334.746 765.874 335.757 766.782 336.768C773.973 344.715 779.123 355.162 780.833 365.272C781.427 368.796 781.584 370.72 781.584 374.89C781.584 379.061 781.427 380.984 780.833 384.509C779.123 394.618 773.973 405.065 766.782 413.013C765.874 414.01 765.019 415.021 764.897 415.259C764.53 415.877 760.359 419.739 757.653 421.971C754.965 424.176 748.839 428.234 745.505 430.031C733.147 436.658 718.921 440.492 704.608 441.025C692.949 441.475 683.558 440.281 672.021 436.925C668.058 435.774 665.597 434.861 661.722 433.106C653.693 429.469 649.137 426.647 642.26 420.988C639.258 418.545 637.163 416.565 635.575 414.726C631.787 410.303 631.107 409.446 629.152 406.624C625.102 400.755 621.925 393.397 620.442 386.474C618.853 378.962 618.853 370.818 620.442 363.306C621.925 356.384 625.102 349.026 629.152 343.157C631.107 340.334 631.787 339.478 635.575 335.055C637.163 333.215 639.258 331.236 642.26 328.792C647.549 324.439 651.057 322.081 656.329 319.258C658.947 317.854 665.126 315.116 667.482 314.302C671.41 312.926 676.803 311.437 680.573 310.665C688.952 308.952 695.881 308.418 704.923 308.755Z" fill="url(#paint26_linear)"/>
</g>
</g>
<defs>
<linearGradient id="paint0_linear" x1="101.013" y1="285.144" x2="101.013" y2="222.154" gradientUnits="userSpaceOnUse">
<stop stop-color="#6D7690"/>
<stop offset="1" stop-color="#6D7690" stop-opacity="0.44"/>
</linearGradient>
<linearGradient id="paint1_linear" x1="614.5" y1="536.429" x2="614.5" y2="402.463" gradientUnits="userSpaceOnUse">
<stop stop-color="#8282AE"/>
<stop offset="1" stop-color="#8282AE" stop-opacity="0.39"/>
</linearGradient>
<linearGradient id="paint2_linear" x1="374.724" y1="59.5186" x2="453.987" y2="229.366" gradientUnits="userSpaceOnUse">
<stop stop-color="#6878A2"/>
<stop offset="1" stop-color="#8C9CC6"/>
</linearGradient>
<linearGradient id="paint3_linear" x1="384.997" y1="61.3739" x2="295.653" y2="245.173" gradientUnits="userSpaceOnUse">
<stop stop-color="#C4C4C4"/>
<stop offset="1" stop-color="#C4C4C4" stop-opacity="0"/>
</linearGradient>
<linearGradient id="paint4_linear" x1="444.261" y1="62.116" x2="354.918" y2="245.915" gradientUnits="userSpaceOnUse">
<stop stop-color="#C4C4C4"/>
<stop offset="1" stop-color="#C4C4C4" stop-opacity="0"/>
</linearGradient>
<linearGradient id="paint5_linear" x1="481.4" y1="81.7815" x2="392.056" y2="265.58" gradientUnits="userSpaceOnUse">
<stop stop-color="#C4C4C4"/>
<stop offset="1" stop-color="#C4C4C4" stop-opacity="0"/>
</linearGradient>
<linearGradient id="paint6_linear" x1="229.487" y1="132.148" x2="229.487" y2="303.571" gradientUnits="userSpaceOnUse">
<stop stop-color="#282F40"/>
<stop offset="1" stop-color="#465475"/>
</linearGradient>
<linearGradient id="paint7_linear" x1="180.101" y1="132.89" x2="180.101" y2="303.2" gradientUnits="userSpaceOnUse">
<stop stop-color="#293142"/>
<stop offset="1" stop-color="#455374"/>
</linearGradient>
<linearGradient id="paint8_linear" x1="399.111" y1="398.045" x2="399.111" y2="467.185" gradientUnits="userSpaceOnUse">
<stop stop-color="#B1B9CA"/>
<stop offset="1" stop-color="#BBC6DE"/>
</linearGradient>
<linearGradient id="paint9_linear" x1="300.139" y1="260.387" x2="305.528" y2="300.633" gradientUnits="userSpaceOnUse">
<stop stop-color="#C6C8CC"/>
<stop offset="1" stop-color="#B3BAC9"/>
</linearGradient>
<linearGradient id="paint10_linear" x1="347.88" y1="319.755" x2="347.88" y2="400.272" gradientUnits="userSpaceOnUse">
<stop stop-color="#ADB6CC"/>
<stop offset="1" stop-color="#2E3956"/>
</linearGradient>
<linearGradient id="paint11_linear" x1="283.114" y1="333.483" x2="283.114" y2="399.901" gradientUnits="userSpaceOnUse">
<stop stop-color="#B1B9CA"/>
<stop offset="1" stop-color="#BBC6DE"/>
</linearGradient>
<linearGradient id="paint12_linear" x1="357.032" y1="369.846" x2="358.776" y2="390.644" gradientUnits="userSpaceOnUse">
<stop stop-color="#C4C4C4"/>
<stop offset="1" stop-color="#C4C4C4" stop-opacity="0"/>
</linearGradient>
<linearGradient id="paint13_linear" x1="388.047" y1="323.465" x2="392.072" y2="345.452" gradientUnits="userSpaceOnUse">
<stop stop-color="#DADADA"/>
<stop offset="1" stop-color="#A6A2A2"/>
</linearGradient>
<linearGradient id="paint14_linear" x1="396.937" y1="331.999" x2="381.101" y2="313.569" gradientUnits="userSpaceOnUse">
<stop stop-color="#616161"/>
<stop offset="1" stop-color="#C4C4C4" stop-opacity="0"/>
</linearGradient>
<linearGradient id="paint15_linear" x1="533.55" y1="337.325" x2="538.088" y2="377.466" gradientUnits="userSpaceOnUse">
<stop stop-color="#586073"/>
<stop offset="1" stop-color="#A3B4D9"/>
</linearGradient>
<linearGradient id="paint16_linear" x1="504.708" y1="261.261" x2="532.656" y2="339.237" gradientUnits="userSpaceOnUse">
<stop stop-color="#7C69A3"/>
<stop offset="1" stop-color="#8697C0"/>
</linearGradient>
<linearGradient id="paint17_linear" x1="537.501" y1="239.369" x2="503.323" y2="352.676" gradientUnits="userSpaceOnUse">
<stop stop-color="#BEBFC2"/>
<stop offset="1" stop-color="#C4C4C4" stop-opacity="0"/>
</linearGradient>
<linearGradient id="paint18_linear" x1="571.285" y1="239.369" x2="530.081" y2="347.247" gradientUnits="userSpaceOnUse">
<stop stop-color="#BEBFC2"/>
<stop offset="1" stop-color="#C4C4C4" stop-opacity="0"/>
</linearGradient>
<linearGradient id="paint19_linear" x1="61.087" y1="12.7631" x2="120.622" y2="125.419" gradientUnits="userSpaceOnUse">
<stop stop-color="#464954"/>
<stop offset="1" stop-color="#BDC4DA"/>
</linearGradient>
<linearGradient id="paint20_linear" x1="537.125" y1="166.321" x2="557.558" y2="234.594" gradientUnits="userSpaceOnUse">
<stop stop-color="#94A3C4"/>
<stop offset="1" stop-color="#7D6EA6"/>
</linearGradient>
<linearGradient id="paint21_linear" x1="152.121" y1="317.863" x2="173.344" y2="409.074" gradientUnits="userSpaceOnUse">
<stop stop-color="#282F40" stop-opacity="0.22"/>
<stop offset="1" stop-color="#3F5FB1"/>
</linearGradient>
<linearGradient id="paint22_linear" x1="546.555" y1="54.083" x2="562.778" y2="33.6989" gradientUnits="userSpaceOnUse">
<stop stop-color="#9EA6BA"/>
<stop offset="1" stop-color="#CBD3E8"/>
</linearGradient>
<linearGradient id="paint23_linear" x1="536.811" y1="62.5394" x2="550.175" y2="45.7475" gradientUnits="userSpaceOnUse">
<stop stop-color="#9EA6BA"/>
<stop offset="1" stop-color="#CBD3E8"/>
</linearGradient>
<linearGradient id="paint24_linear" x1="527.065" y1="70.9644" x2="537.511" y2="57.8391" gradientUnits="userSpaceOnUse">
<stop stop-color="#9EA6BA"/>
<stop offset="1" stop-color="#CBD3E8"/>
</linearGradient>
<linearGradient id="paint25_linear" x1="512.116" y1="83.9241" x2="524.693" y2="68.1206" gradientUnits="userSpaceOnUse">
<stop stop-color="#9EA6BA"/>
<stop offset="1" stop-color="#CBD3E8"/>
</linearGradient>
<linearGradient id="paint26_linear" x1="700.559" y1="464.755" x2="700.559" y2="285.071" gradientUnits="userSpaceOnUse">
<stop stop-color="#3D4965"/>
<stop offset="1" stop-color="#8786B3"/>
</linearGradient>
<clipPath id="clip0">
<rect width="68" height="63" fill="white" transform="translate(67 222.148)"/>
</clipPath>
<clipPath id="clip1">
<rect width="155" height="134" fill="white" transform="translate(537 402.429)"/>
</clipPath>
</defs>
</svg>
